<svg viewBox="0 0 460 352" role="img" aria-label="Dimensioned drawing of the ceramic infrared heater you are configuring. Wattage 650 W. Voltage 230 V. Distance to the work 150 mm. Element form: Trough. Inbuilt thermocouple: Type K. Reflector: Fitted. Each numbered callout matches the box with the same number in the form."><path class="opt-form" d="M132.0408163265306 100H194.0408163265306L174.0408163265306 152L194.0408163265306 204H132.0408163265306Z" fill="hsl(30 90% 94%)" stroke="hsl(214 32% 11%)" stroke-width="1.9"></path><path d="M141.0408163265306 120.8h36 M141.0408163265306 141.6h36 M141.0408163265306 162.4h36 M141.0408163265306 183.2h36 " fill="none" stroke="hsl(24 60% 74%)" stroke-width="2.2" stroke-linecap="round"></path><g class="opt-refl"><path d="M124.0408163265306 78H104.0408163265306V226H124.0408163265306" fill="hsl(214 16% 95%)" stroke="hsl(214 32% 11%)" stroke-width="1.7"></path><path d="M104.0408163265306 88h20M104.0408163265306 152h20M104.0408163265306 216h20" fill="none" stroke="hsl(214 32% 11%)" stroke-width="1.1"></path></g><path d="M275.9591836734694 74V230" fill="none" stroke="hsl(214 32% 11%)" stroke-width="4"></path><text x="285.96" y="157" text-anchor="start" font-family="Inter,sans-serif" font-size="14" fill="hsl(214 14% 38%)">work</text><path d="M200.0408163265306 112h69.91836734693878M200.0408163265306 152h69.91836734693878M200.0408163265306 192h69.91836734693878" fill="none" stroke="hsl(20 75% 50%)" stroke-width="1.4" stroke-dasharray="6 4"></path><g class="opt-tc"><circle cx="182.04" cy="118" r="5" fill="hsl(20 75% 50%)"></circle><path d="M182.0408163265306 118V66H92.0408163265306" fill="none" stroke="hsl(20 75% 50%)" stroke-width="1.3" stroke-dasharray="4 3"></path></g><path d="M194.04 252H275.96M194.04 247v10M275.96 247v10" fill="none" stroke="hsl(20 75% 50%)" stroke-width="1.3"></path><g class="callout-n"><circle cx="235" cy="252" r="12" fill="hsl(20 75% 50%)"></circle><text x="235" y="257.5" text-anchor="middle" font-family="Inter,sans-serif" font-size="15" font-weight="700" fill="#fff">1</text></g><g class="notes"><path d="M22 302H438" fill="none" stroke="hsl(214 16% 88%)" stroke-width="1"></path><text x="22" y="320" text-anchor="start" font-family="Inter,sans-serif" font-size="15" fill="hsl(214 14% 38%)">Trough  ·  Fitted reflector</text><text x="22" y="339" text-anchor="start" font-family="Inter,sans-serif" font-size="15" fill="hsl(214 14% 38%)">Type K thermocouple</text></g></svg>
